<svg width="13" height="11" viewBox="0 0 13 11" fill="none" xmlns="http://www.w3.org/2000/svg">
    <path fill-rule="evenodd" clip-rule="evenodd" d="M5.85355 0.146447C6.04882 0.341709 6.04882 0.658291 5.85355 0.853553L1.20711 5.5L5.85355 10.1464C6.04882 10.3417 6.04882 10.6583 5.85355 10.8536C5.65829 11.0488 5.34171 11.0488 5.14645 10.8536L0.146447 5.85355C-0.0488155 5.65829 -0.0488155 5.34171 0.146447 5.14645L5.14645 0.146447C5.34171 -0.0488155 5.65829 -0.0488155 5.85355 0.146447Z" fill="#414141"/>
    <path fill-rule="evenodd" clip-rule="evenodd" d="M12.8536 0.146447C13.0488 0.341709 13.0488 0.658291 12.8536 0.853553L8.20711 5.5L12.8536 10.1464C13.0488 10.3417 13.0488 10.6583 12.8536 10.8536C12.6583 11.0488 12.3417 11.0488 12.1464 10.8536L7.14645 5.85355C6.95118 5.65829 6.95118 5.34171 7.14645 5.14645L12.1464 0.146447C12.3417 -0.0488155 12.6583 -0.0488155 12.8536 0.146447Z" fill="#414141"/>
</svg>
