<svg width="13" height="13" viewBox="0 0 13 13" fill="none" xmlns="http://www.w3.org/2000/svg">
<path d="M5.56371 0.557433C5.93053 -0.185813 6.99037 -0.185812 7.35719 0.557434L8.57892 3.03294C8.72458 3.32808 9.00615 3.53265 9.33186 3.57998L12.0637 3.97694C12.884 4.09613 13.2115 5.1041 12.618 5.68264L10.6411 7.60955C10.4055 7.83929 10.2979 8.17029 10.3535 8.49468L10.8202 11.2155C10.9603 12.0324 10.1029 12.6554 9.36926 12.2697L6.92579 10.9851C6.63447 10.8319 6.28643 10.8319 5.99511 10.9851L3.55164 12.2697C2.81801 12.6554 1.96058 12.0324 2.10069 11.2155L2.56735 8.49468C2.62299 8.17029 2.51544 7.83929 2.27975 7.60955L0.302946 5.68264C-0.290571 5.1041 0.0369397 4.09613 0.85716 3.97694L3.58904 3.57998C3.91475 3.53265 4.19632 3.32808 4.34198 3.03294L5.56371 0.557433Z" fill="#BFBFBF"/>
</svg>
