<svg width="19" height="19" viewBox="0 0 19 19" fill="none" xmlns="http://www.w3.org/2000/svg">
    <path fill-rule="evenodd" clip-rule="evenodd" d="M0 8C0 3.58172 3.58172 0 8 0C12.4183 0 16 3.58172 16 8C16 12.4183 12.4183 16 8 16C3.58172 16 0 12.4183 0 8ZM8 1C4.13401 1 1 4.13401 1 8C1 11.866 4.13401 15 8 15C11.866 15 15 11.866 15 8C15 4.13401 11.866 1 8 1Z" fill="#414141"/>
    <path fill-rule="evenodd" clip-rule="evenodd" d="M12.9463 12.9464C13.1415 12.7512 13.4581 12.7512 13.6534 12.9464L18.8534 18.1464C19.0486 18.3417 19.0486 18.6583 18.8534 18.8535C18.6581 19.0488 18.3415 19.0488 18.1463 18.8535L12.9463 13.6535C12.751 13.4583 12.751 13.1417 12.9463 12.9464Z" fill="#414141"/>
</svg>
